<svg width="279.2" height="64.001" viewBox="0 0 279.2 64.001" xmlns="http://www.w3.org/2000/svg"><g id="svgGroup" stroke-linecap="round" fill-rule="evenodd" font-size="9pt" stroke="#ffffff" stroke-width="0.25mm" fill="#ffffff" style="stroke:#ffffff;stroke-width:0.25mm;fill:#ffffff"><path d="M 239.809 3.596 A 6.045 6.045 0 0 0 236.5 2.601 Q 234.5 2.601 232.95 4.051 A 5.973 5.973 0 0 0 232.524 4.491 A 4.317 4.317 0 0 0 231.4 7.401 A 22.362 22.362 0 0 0 231.415 8.221 A 18.107 18.107 0 0 0 231.5 9.451 Q 231.569 10.104 231.874 10.97 A 13.545 13.545 0 0 0 232.2 11.801 Q 235.5 19.301 235.5 27.101 A 57.69 57.69 0 0 1 235.375 30.939 A 47.858 47.858 0 0 1 234.25 38.651 Q 233 44.001 231.05 48.001 A 31.242 31.242 0 0 1 230.515 49.048 Q 229.7 50.573 228.802 51.819 A 17.048 17.048 0 0 1 226.65 54.301 Q 224.2 56.601 221.8 56.601 Q 220 56.601 218.45 55.751 Q 216.9 54.901 215.85 52.651 Q 215.128 51.104 214.619 48.801 A 36.446 36.446 0 0 1 214.2 46.551 A 42.295 42.295 0 0 1 213.871 43.803 Q 213.6 40.765 213.6 36.801 Q 213.6 35.579 213.628 34.188 A 182.794 182.794 0 0 1 213.7 31.601 A 253.417 253.417 0 0 1 213.73 30.768 Q 213.828 28.173 214 24.951 Q 214.2 21.201 214.5 16.451 A 384.934 384.934 0 0 1 214.541 15.814 Q 214.686 13.568 214.875 11.051 A 652.23 652.23 0 0 1 215.3 5.701 A 5.429 5.429 0 0 0 215.328 5.16 A 4.152 4.152 0 0 0 214.25 2.301 A 3.646 3.646 0 0 0 213.166 1.476 Q 212.031 0.901 210.3 0.901 Q 209.447 0.901 208.751 1.091 A 3.746 3.746 0 0 0 207.05 2.051 A 3.475 3.475 0 0 0 206.834 2.289 Q 205.852 3.471 205.4 6.001 Q 204.8 10.001 204.35 13.601 Q 203.9 17.201 203.6 21.051 A 171.614 171.614 0 0 0 203.455 23.062 A 198.546 198.546 0 0 0 203.15 29.151 Q 203 33.401 203 38.801 Q 203 45.401 204.2 50.151 A 37.165 37.165 0 0 0 204.495 51.248 Q 205.043 53.167 205.741 54.792 A 20.401 20.401 0 0 0 207.45 58.001 A 16.013 16.013 0 0 0 209.095 60.103 A 11.93 11.93 0 0 0 212.25 62.551 Q 215 64.001 218.1 64.001 A 15.726 15.726 0 0 0 224.996 62.397 A 20.867 20.867 0 0 0 229.45 59.451 Q 232.627 56.749 235.045 52.761 A 39.029 39.029 0 0 0 238 46.701 A 28.886 28.886 0 0 0 238.145 49.641 A 22.722 22.722 0 0 0 238.95 53.801 A 20.753 20.753 0 0 0 239.876 56.332 A 15.723 15.723 0 0 0 241.55 59.251 A 14.01 14.01 0 0 0 242.026 59.864 A 11.899 11.899 0 0 0 245.45 62.751 Q 247.7 64.001 250.4 64.001 Q 256.5 64.001 261.75 60.851 A 27.787 27.787 0 0 0 265.572 58.087 A 32.14 32.14 0 0 0 270.9 52.151 A 38.969 38.969 0 0 0 274.183 46.497 A 49.188 49.188 0 0 0 277 39.001 A 53.267 53.267 0 0 0 278.425 32.595 A 64.527 64.527 0 0 0 279.2 22.401 A 56.347 56.347 0 0 0 279.199 22.077 Q 279.17 17.074 278.25 13.151 Q 277.3 9.101 275.85 6.351 A 18.854 18.854 0 0 0 275.33 5.426 Q 274.745 4.454 274.108 3.684 A 9.696 9.696 0 0 0 272.6 2.201 A 9.136 9.136 0 0 0 272.41 2.057 Q 271.746 1.567 271.081 1.269 A 5.038 5.038 0 0 0 269 0.801 A 8.554 8.554 0 0 0 268.015 0.856 A 6.519 6.519 0 0 0 264.6 2.251 Q 262.8 3.701 262.8 5.601 A 14.746 14.746 0 0 0 262.844 6.765 A 10.983 10.983 0 0 0 263 7.951 A 6.402 6.402 0 0 0 263.03 8.099 Q 263.142 8.621 263.352 9.179 A 10.623 10.623 0 0 0 263.8 10.201 A 48.847 48.847 0 0 1 266.075 15.561 A 38.896 38.896 0 0 1 268.4 28.601 A 52.522 52.522 0 0 1 268.217 33.042 A 42.466 42.466 0 0 1 267.1 39.851 A 49.381 49.381 0 0 1 267.018 40.171 Q 265.734 45.116 263.7 48.701 A 27.294 27.294 0 0 1 263.435 49.157 Q 261.434 52.529 258.95 54.451 A 13.52 13.52 0 0 1 258.918 54.476 Q 257.899 55.259 256.872 55.739 A 7.657 7.657 0 0 1 253.6 56.501 Q 251.6 56.501 249.85 55.701 A 6.325 6.325 0 0 1 248.017 54.414 A 8.581 8.581 0 0 1 246.85 52.951 A 11.012 11.012 0 0 1 246.233 51.848 Q 245.807 50.977 245.454 49.919 A 23.603 23.603 0 0 1 244.85 47.751 A 24.141 24.141 0 0 1 244.489 45.799 Q 244.294 44.462 244.197 42.91 A 53.121 53.121 0 0 1 244.1 39.601 A 46.98 46.98 0 0 1 244.158 37.237 A 36.57 36.57 0 0 1 244.4 34.451 Q 244.7 32.101 245.1 29.851 Q 245.5 27.601 245.8 25.351 Q 246.1 23.101 246.1 20.401 A 38.06 38.06 0 0 0 245.957 17.035 A 29.547 29.547 0 0 0 245.35 13.101 A 29.447 29.447 0 0 0 245.245 12.653 Q 244.893 11.208 244.43 9.963 A 17.077 17.077 0 0 0 243.3 7.501 A 13.589 13.589 0 0 0 242.123 5.738 A 10.046 10.046 0 0 0 240.25 3.901 A 7.598 7.598 0 0 0 239.809 3.596 Z M 83.5 36.901 L 83.5 59.801 A 3.592 3.592 0 0 1 83.219 61.241 A 3.423 3.423 0 0 1 82.2 62.551 Q 81.207 63.353 79.514 63.542 A 10.034 10.034 0 0 1 78.4 63.601 A 9.688 9.688 0 0 1 76.945 63.498 Q 76.157 63.378 75.517 63.118 A 4.509 4.509 0 0 1 74.5 62.551 A 3.613 3.613 0 0 1 73.568 61.549 Q 73.1 60.784 73.1 59.801 L 73.1 16.501 A 38.102 38.102 0 0 1 73.166 14.195 Q 73.263 12.607 73.5 11.301 A 9.129 9.129 0 0 1 74.275 8.9 A 7.964 7.964 0 0 1 75.15 7.501 Q 76.4 5.901 78.75 4.701 A 23.928 23.928 0 0 1 80.671 3.833 Q 81.697 3.419 82.907 3.017 A 54.133 54.133 0 0 1 84.9 2.401 Q 85.931 2.126 87.27 1.827 A 99.438 99.438 0 0 1 88.55 1.551 Q 90.7 1.101 93 0.751 Q 95.3 0.401 97.45 0.201 A 50.665 50.665 0 0 1 99.367 0.057 Q 100.268 0.008 101.072 0.002 A 29.667 29.667 0 0 1 101.3 0.001 Q 113.2 0.001 118.8 4.201 A 14.877 14.877 0 0 1 122.321 7.848 A 12.63 12.63 0 0 1 124.4 15.001 Q 124.4 18.501 123.05 21.701 A 19.059 19.059 0 0 1 119.308 27.385 A 21.587 21.587 0 0 1 119.15 27.551 A 22.097 22.097 0 0 1 115.1 30.84 A 26.942 26.942 0 0 1 112.9 32.101 A 28.164 28.164 0 0 1 108.119 34.004 A 36.052 36.052 0 0 1 104.4 34.901 A 21.858 21.858 0 0 1 112.356 37.899 A 24.887 24.887 0 0 1 112.6 38.051 Q 116.5 40.501 119.5 43.951 Q 122.5 47.401 124.25 51.501 Q 126 55.601 126 59.601 Q 126 61.601 124.65 62.701 A 4.357 4.357 0 0 1 123.244 63.448 Q 122.612 63.656 121.841 63.741 A 10.386 10.386 0 0 1 120.7 63.801 A 9.762 9.762 0 0 1 119.348 63.714 Q 118.661 63.617 118.109 63.414 A 3.613 3.613 0 0 1 116.9 62.701 A 4.233 4.233 0 0 1 115.684 60.68 A 5.88 5.88 0 0 1 115.5 59.701 A 24.764 24.764 0 0 0 114.073 53.098 A 22.359 22.359 0 0 0 113.05 50.751 A 27.226 27.226 0 0 0 109.354 45.194 A 24.672 24.672 0 0 0 108 43.751 Q 105 40.801 101.25 39.151 A 19.558 19.558 0 0 0 96.611 37.738 A 16.929 16.929 0 0 0 93.8 37.501 L 91.8 37.501 Q 89.9 37.501 87.7 37.351 Q 85.5 37.201 83.5 36.901 Z M 180.1 34.601 L 146.4 34.601 Q 146.4 40.621 147.398 45.351 A 36.439 36.439 0 0 0 147.6 46.251 Q 148.705 50.901 150.573 54.237 A 21.781 21.781 0 0 0 150.9 54.801 Q 151.8 56.301 152.15 57.401 Q 152.5 58.501 152.5 59.601 A 3.631 3.631 0 0 1 151.708 61.852 A 5.468 5.468 0 0 1 150.95 62.651 Q 149.448 63.959 146.961 63.999 A 9.829 9.829 0 0 1 146.8 64.001 A 5.558 5.558 0 0 1 144.46 63.469 A 7.366 7.366 0 0 1 143.45 62.901 Q 141.8 61.801 140.6 59.501 Q 138.967 56.321 137.925 51.923 A 50.533 50.533 0 0 1 137.6 50.451 Q 136.5 45.101 136.5 39.501 A 50.704 50.704 0 0 1 137.496 29.278 A 43.059 43.059 0 0 1 139.05 23.651 A 41.922 41.922 0 0 1 142.951 15.416 A 35.74 35.74 0 0 1 146.05 11.151 Q 150.5 5.901 156.35 2.951 Q 162.2 0.001 168.8 0.001 A 34.668 34.668 0 0 1 174.932 0.507 Q 178.239 1.102 180.839 2.398 A 15.973 15.973 0 0 1 185.1 5.451 Q 190.5 10.901 190.5 22.401 L 190.5 59.801 A 4.495 4.495 0 0 1 190.286 61.221 A 3.697 3.697 0 0 1 189.2 62.851 A 4.076 4.076 0 0 1 187.814 63.637 Q 186.763 64.001 185.3 64.001 A 9.399 9.399 0 0 1 183.871 63.899 Q 182.314 63.659 181.4 62.851 A 3.79 3.79 0 0 1 180.114 60.179 A 5.238 5.238 0 0 1 180.1 59.801 L 180.1 34.601 Z M 0 54.201 L 0 16.001 A 30.818 30.818 0 0 1 0.099 13.462 Q 0.263 11.482 0.7 9.951 Q 1.4 7.501 3.5 5.851 A 12.224 12.224 0 0 1 5.392 4.646 Q 7.065 3.771 9.35 3.101 A 47.213 47.213 0 0 1 12.206 2.368 Q 15.197 1.691 19.2 1.101 A 75.816 75.816 0 0 1 21.462 0.815 Q 23.481 0.588 25.95 0.401 Q 29.9 0.101 33.2 0.101 A 42.715 42.715 0 0 1 39.365 0.526 A 32.843 32.843 0 0 1 44.55 1.701 A 28.191 28.191 0 0 1 49.773 3.928 A 23.236 23.236 0 0 1 53.2 6.251 Q 56.8 9.201 58.7 13.401 A 21.533 21.533 0 0 1 60.509 20.513 A 25.9 25.9 0 0 1 60.6 22.701 A 48.264 48.264 0 0 1 59.564 32.886 A 40.114 40.114 0 0 1 57.5 39.601 Q 54.4 47.201 48.75 52.651 A 38.078 38.078 0 0 1 37.102 60.274 A 44.494 44.494 0 0 1 35.15 61.051 A 47.145 47.145 0 0 1 23.677 63.683 A 58.552 58.552 0 0 1 17.5 64.001 A 163.187 163.187 0 0 1 14.047 63.967 Q 10.741 63.896 8.425 63.682 A 44.106 44.106 0 0 1 8.1 63.651 A 23.009 23.009 0 0 1 6.125 63.372 Q 4.193 63.008 2.975 62.349 A 6.176 6.176 0 0 1 2.8 62.251 Q 1 61.201 0.5 59.251 A 13.638 13.638 0 0 1 0.205 57.701 Q 0 56.187 0 54.201 Z M 10.4 16.301 L 10.4 52.701 A 12.371 12.371 0 0 0 10.429 53.58 Q 10.494 54.482 10.7 55.101 A 2.162 2.162 0 0 0 11.442 56.13 A 3.228 3.228 0 0 0 12.05 56.501 A 5.32 5.32 0 0 0 12.799 56.784 Q 13.595 57.024 14.722 57.159 A 19.231 19.231 0 0 0 15.1 57.201 A 32.063 32.063 0 0 0 16.497 57.306 Q 18.194 57.401 20.6 57.401 A 39.548 39.548 0 0 0 27.632 56.799 A 32.386 32.386 0 0 0 32.3 55.601 Q 37.6 53.801 41.4 50.051 Q 45.2 46.301 47.35 40.401 A 33.346 33.346 0 0 0 48.893 34.364 Q 49.377 31.41 49.475 28.044 A 59.77 59.77 0 0 0 49.5 26.301 Q 49.5 19.989 47.566 15.795 A 13.562 13.562 0 0 0 44.25 11.251 A 16.237 16.237 0 0 0 38.833 8.155 Q 34.444 6.601 28.2 6.601 A 45.446 45.446 0 0 0 26.278 6.64 A 37.305 37.305 0 0 0 25.2 6.701 A 30.534 30.534 0 0 0 23.608 6.855 A 24.621 24.621 0 0 0 22.6 7.001 Q 20.106 7.329 18.237 7.7 A 34.147 34.147 0 0 0 16.45 8.101 A 14.197 14.197 0 0 0 14.89 8.59 Q 13.615 9.078 12.75 9.751 Q 11.4 10.801 10.9 12.351 A 9.039 9.039 0 0 0 10.595 13.633 Q 10.486 14.29 10.437 15.052 A 19.872 19.872 0 0 0 10.4 16.301 Z M 83.5 16.701 L 83.5 31.501 A 20.372 20.372 0 0 0 84.989 31.703 Q 86.155 31.821 87.55 31.851 Q 89.9 31.901 92.2 31.901 A 51.605 51.605 0 0 0 97.967 31.602 Q 104.022 30.918 107.637 28.673 A 12.945 12.945 0 0 0 108.75 27.901 A 12.941 12.941 0 0 0 113.829 18.422 A 18.17 18.17 0 0 0 113.9 16.801 A 11.473 11.473 0 0 0 113.309 13.037 A 9.586 9.586 0 0 0 110.25 8.701 A 11.457 11.457 0 0 0 106.666 6.758 Q 103.594 5.701 99.2 5.701 A 35.973 35.973 0 0 0 96.602 5.798 A 43.318 43.318 0 0 0 94.95 5.951 A 39.519 39.519 0 0 0 93.354 6.159 Q 92.1 6.351 91.1 6.601 A 41.608 41.608 0 0 0 89.578 6.981 Q 88.016 7.404 86.95 7.851 A 6.881 6.881 0 0 0 85.9 8.394 Q 85.119 8.894 84.65 9.551 A 4.806 4.806 0 0 0 84.023 10.793 Q 83.832 11.349 83.734 12.004 A 8.621 8.621 0 0 0 83.7 12.251 Q 83.5 13.901 83.5 16.701 Z M 146.9 28.201 L 180.1 28.201 L 180.1 24.801 A 39.137 39.137 0 0 0 179.816 19.904 Q 179.145 14.603 176.89 11.574 A 10.422 10.422 0 0 0 176.3 10.851 A 12.379 12.379 0 0 0 169.424 6.975 A 18.51 18.51 0 0 0 165.6 6.601 Q 162.4 6.601 159.4 7.901 Q 156.4 9.201 153.95 11.901 A 22.679 22.679 0 0 0 151.516 15.15 A 30.757 30.757 0 0 0 149.65 18.651 Q 147.858 22.574 146.957 27.858 A 52.457 52.457 0 0 0 146.9 28.201 Z" vector-effect="non-scaling-stroke"/></g></svg>